Coordinates
nRows=17
nColumns=24

# SIMM Motion File Header:
name Coordinates
datacolumns 24
datarows 17
otherdata 1
range 0.45499999999999996000 0.47099999999999997000
endheader
time	pelvis_tx	pelvis_ty	pelvis_tz	pelvis_tilt	pelvis_list	pelvis_rotation	hip_flexion_r	hip_adduction_r	hip_rotation_r	knee_angle_r	ankle_angle_r	subtalar_angle_r	mtp_angle_r	hip_flexion_l	hip_adduction_l	hip_rotation_l	knee_angle_l	ankle_angle_l	subtalar_angle_l	mtp_angle_l	lumbar_extension	lumbar_bending	lumbar_rotation
      0.45499999999999996000	      0.28690752382410556000	      0.84154961501391934000	     -0.27665272130825397000	     -3.13301254947226050000	      2.67546435872907960000	     -4.89916286465553870000	     11.43753697718536200000	     -8.19540652610922570000	      3.68349611196444830000	    -61.74610983719169600000	    -25.50265354916850000000	      0.00000000000000000566	      0.00000000000000036148	      5.68075822927862720000	      6.64674895564453740000	     -2.75947175407763370000	     -0.31090477223936475000	     -4.16757424569465500000	     -0.00000000000000072926	      0.00000000000000127132	      6.71906644785108660000	     -4.86243512434322600000	     14.42605716869232200000
      0.45599999999999996000	      0.28729391339368082000	      0.84154590363721227000	     -0.27673213013819814000	     -3.12014869017732230000	      2.67610002847749630000	     -4.91534454172633510000	     11.55507125207045100000	     -8.19303300890158150000	      3.72986553059709490000	    -61.90610443619620200000	    -25.42085063492171000000	      0.00000000000000000479	      0.00000000000000035884	      5.62542886324957610000	      6.65757125452165880000	     -2.76135310909580770000	     -0.28216991116660239000	     -4.14833070947285960000	     -0.00000000000000078209	      0.00000000000000143717	      6.70388624816178780000	     -4.85787797126215540000	     14.42679859327393800000
      0.45699999999999996000	      0.28768023696526318000	      0.84154295448170124000	     -0.27681307351618234000	     -3.10690772858406780000	      2.67805728056374810000	     -4.93078256727040020000	     11.67212433734763400000	     -8.19252905806554570000	      3.77537995780297390000	    -62.06322147697136400000	    -25.35571590105985300000	      0.00000000000000000271	      0.00000000000000035275	      5.56957917006131800000	      6.67029645566627140000	     -2.76323651490015010000	     -0.25250897443700510000	     -4.13302931618813040000	     -0.00000000000000081883	      0.00000000000000154035	      6.68841380376015060000	     -4.85485300805006670000	     14.42666640882879700000
      0.45799999999999996000	      0.28806647083032422000	      0.84154103694532378000	     -0.27689609534507076000	     -3.09315642351183230000	      2.68180281707786340000	     -4.94521297252315770000	     11.78852576772522600000	     -8.19455495771871160000	      3.81973648822442020000	    -62.21644072175678300000	    -25.31315027532180700000	     -0.00000000000000000111	      0.00000000000000034227	      5.51302532014143500000	      6.68559706280793260000	     -2.76512114646528630000	     -0.22159496649885085000	     -4.12304987639202820000	     -0.00000000000000083368	      0.00000000000000155826	      6.67254582989630320000	     -4.85390130203318910000	     14.42535036129662500000
      0.45899999999999996000	      0.28845270469538520000	      0.84153911940894643000	     -0.27697911717395923000	     -3.07940511843959630000	      2.68554835359197860000	     -4.95964337777591440000	     11.90492719810281800000	     -8.19658085737187570000	      3.86409301864586660000	    -62.36965996654220100000	    -25.27058464958376000000	     -0.00000000000000000494	      0.00000000000000033178	      5.45647147022155200000	      6.70089766994959480000	     -2.76700577803042250000	     -0.19068095856069661000	     -4.11307043659592610000	     -0.00000000000000084853	      0.00000000000000157617	      6.65667785603245580000	     -4.85294959601631070000	     14.42403431376445200000
      0.45999999999999996000	      0.28883863972996637000	      0.84153872137313157000	     -0.27706569386313029000	     -3.06486460618351990000	      2.69161737167583090000	     -4.97213100094117340000	     12.01999075179542400000	     -8.20190532486710570000	      3.90632706523867410000	    -62.51630387683295700000	    -25.25738954005284100000	     -0.00000000000000000950	      0.00000000000000033875	      5.39887334229651380000	      6.71976474625490820000	     -2.76808860872807070000	     -0.15816490779319634000	     -4.10569762741387920000	     -0.00000000000000084673	      0.00000000000000152394	      6.64013838756061150000	     -4.85470682617866260000	     14.42036214085257000000
      0.46099999999999997000	      0.28922454959984145000	      0.84153845129543225000	     -0.27715256990936243000	     -3.05025763428505000000	      2.69788205163072800000	     -4.98445502118260460000	     12.13494164203555500000	     -8.20750756687285940000	      3.94838237610894320000	    -62.66239407399479700000	    -25.24666774050185900000	     -0.00000000000000001413	      0.00000000000000034720	      5.34118727505186190000	      6.73893215721261290000	     -2.76910391926116040000	     -0.12551394797302015000	     -4.09854432426523910000	     -0.00000000000000084352	      0.00000000000000146582	      6.62354237209777350000	     -4.85669217759158480000	     14.41649155711350100000
      0.46199999999999997000	      0.28961026956376534000	      0.84153861948762743000	     -0.27724075836439904000	     -3.03536413977206100000	      2.70457459672904580000	     -4.99590023069351390000	     12.24913426890399900000	     -8.21371691030820190000	      3.98947443413463440000	    -62.80626255484870100000	    -25.23778402851929300000	     -0.00000000000000001069	      0.00000000000000033885	      5.28315971785278030000	      6.75892512616716880000	     -2.76929836473225600000	     -0.09258620767821980300	     -4.08867343233387000000	     -0.00000000000000083582	      0.00000000000000140927	      6.60664535052923440000	     -4.85919981475347560000	     14.41151793538897200000
      0.46299999999999997000	      0.28999572977117005000	      0.84153938715267529000	     -0.27733074195403201000	     -3.02007873486026360000	      2.71185238288861760000	     -5.00614338826707780000	     12.36228973051796800000	     -8.22075665717884440000	      4.02924893889457270000	    -62.94709213517553100000	    -25.23141448329174000000	      0.00000000000000000378	      0.00000000000000030754	      5.22466506501290870000	      6.78004730708402810000	     -2.76837001731541930000	     -0.05927988244563223200	     -4.07508537725492740000	     -0.00000000000000082197	      0.00000000000000135490	      6.58933660780169730000	     -4.86242184305169460000	     14.40503555995749000000
      0.46399999999999997000	      0.29038118997857471000	      0.84154015481772315000	     -0.27742072554366498000	     -3.00479332994846620000	      2.71913016904818950000	     -5.01638654584064180000	     12.47544519213193900000	     -8.22779640404948690000	      4.06902344365451100000	    -63.08792171550235400000	    -25.22504493806418700000	      0.00000000000000001826	      0.00000000000000027623	      5.16617041217303720000	      6.80116948800088750000	     -2.76744166989858260000	     -0.02597355721304465600	     -4.06149732217598560000	     -0.00000000000000080812	      0.00000000000000130052	      6.57202786507415930000	     -4.86564387134991260000	     14.39855318452600800000
      0.46499999999999997000	      0.29076620033317113000	      0.84154130877685196000	     -0.27751268522968181000	     -2.98908848019777240000	      2.72630476138928120000	     -5.02496904913122220000	     12.58688831890833100000	     -8.23465853214666590000	      4.10691217504724990000	    -63.22594884571696400000	    -25.20050194134500600000	      0.00000000000000004011	      0.00000000000000023324	      5.10722928608594630000	      6.82267324120794600000	     -2.76433425805742730000	      0.00726201524456218050	     -4.03767783165238470000	     -0.00000000000000078732	      0.00000000000000123228	      6.55417296399872030000	     -4.86882893122214090000	     14.38993684671944500000
      0.46599999999999997000	      0.29115117280537445000	      0.84154249526605274000	     -0.27760481132404075000	     -2.97334830872856460000	      2.73347066371282880000	     -5.03341170766108000000	     12.69818724887139500000	     -8.24150570285317660000	      4.14464210425700850000	    -63.36373997981282000000	    -25.17442854663667600000	      0.00000000000000006257	      0.00000000000000018927	      5.04825056220076540000	      6.84420912686193720000	     -2.76104334580553520000	      0.04049162956567480700	     -4.01299674539734760000	     -0.00000000000000076593	      0.00000000000000116286	      6.53627207057902120000	     -4.87201087795954010000	     14.38114080657459600000
      0.46699999999999997000	      0.29153545410060777000	      0.84154345139571107000	     -0.27769848066649794000	     -2.95749502782599590000	      2.73977832997968780000	     -5.04018324274105290000	     12.80777205045012900000	     -8.24702137743499540000	      4.18042579625036390000	    -63.49977150813979400000	    -25.11125452049042700000	      0.00000000000000008316	      0.00000000000000014392	      4.98923386726169490000	      6.86511403150040160000	     -2.75514195305003270000	      0.07325144175152878400	     -3.97560792966886380000	     -0.00000000000000074945	      0.00000000000000111129	      6.51807465370004910000	     -4.87427601464489780000	     14.37015812480925100000
      0.46799999999999997000	      0.29191973539584104000	      0.84154440752536930000	     -0.27779215000895519000	     -2.94164174692342770000	      2.74608599624654740000	     -5.04695477782102580000	     12.91735685202886200000	     -8.25253705201681420000	      4.21620948824371840000	    -63.63580303646676100000	    -25.04808049434417700000	      0.00000000000000010375	      0.00000000000000009857	      4.93021717232262450000	      6.88601893613886600000	     -2.74924056029453020000	      0.10601125393738277000	     -3.93821911394038040000	     -0.00000000000000073297	      0.00000000000000105972	      6.49987723682107800000	     -4.87654115133025460000	     14.35917544304390800000
      0.46899999999999997000	      0.29230336533170836000	      0.84154479387770253000	     -0.27788636762256391000	     -2.92606636353464600000	      2.75154268386974280000	     -5.05290646667333920000	     13.02637033839486800000	     -8.25672730684862090000	      4.25106584573067890000	    -63.77115182251313300000	    -24.96057270017399100000	      0.00000000000000011484	      0.00000000000000006720	      4.87163556527850440000	      6.90601555290949420000	     -2.74189186056266410000	      0.13834813048195366000	     -3.89537953568497300000	     -0.00000000000000071906	      0.00000000000000101945	      6.48184824013572580000	     -4.87782525283005340000	     14.34710322554207800000
      0.46999999999999997000	      0.29268634390820963000	      0.84154461045271078000	     -0.27798113350732417000	     -2.91076887765965030000	      2.75614839284927630000	     -5.05803830929799500000	     13.13481250954814600000	     -8.25959214193041550000	      4.28499486871124710000	    -63.90581786627890200000	    -24.84873113797990000000	      0.00000000000000011644	      0.00000000000000004981	      4.81348904612933560000	      6.92510388181228540000	     -2.73309585385443700000	      0.17026207138524202000	     -3.84708919490264870000	     -0.00000000000000070773	      0.00000000000000099046	      6.46398766364399440000	     -4.87812831914429610000	     14.33394147230376500000
      0.47099999999999997000	      0.29306932248471096000	      0.84154442702771892000	     -0.27807589939208444000	     -2.89547139178465600000	      2.76075410182880840000	     -5.06317015192265000000	     13.24325468070142400000	     -8.26245697701220830000	      4.31892389169181360000	    -64.04048391004467100000	    -24.73688957578578100000	      0.00000000000000011804	      0.00000000000000003242	      4.75534252698016770000	      6.94419221071507580000	     -2.72429984714620810000	      0.20217601228852983000	     -3.79879885412032260000	     -0.00000000000000069639	      0.00000000000000096147	      6.44612708715226290000	     -4.87843138545853620000	     14.32077971906545100000
